<?xml version="1.0" encoding="UTF-8"?>
<svg version="1.1" xmlns="http://www.w3.org/2000/svg" width="207" height="195">
<path d="M0 0 C68.31 0 136.62 0 207 0 C207 64.35 207 128.7 207 195 C138.69 195 70.38 195 0 195 C0 130.65 0 66.3 0 0 Z " fill="#000000" transform="translate(0,0)"/>
<path d="M0 0 C3.5005014 2.84415739 6.78461283 5.83829208 10 9 C10.69996094 9.68707031 11.39992187 10.37414062 12.12109375 11.08203125 C27.22567468 26.9521465 32.59314049 47.11465994 32.26953125 68.5390625 C31.64696179 86.21022117 24.01385553 104.08391817 12 117 C11.40960938 117.680625 10.81921875 118.36125 10.2109375 119.0625 C2.48816147 127.47539644 -9.91224425 135.86297642 -21 139 C-25.52818035 138.47181965 -25.52818035 138.47181965 -27 137 C-27.1221692 134.85258322 -27.17980778 132.70144512 -27.2109375 130.55078125 C-27.23902895 129.21418094 -27.26769354 127.87759258 -27.296875 126.54101562 C-27.33797616 124.4323794 -27.37485592 122.32396069 -27.40136719 120.21508789 C-27.42916684 118.18068037 -27.47505898 116.14729013 -27.5234375 114.11328125 C-27.5531665 112.28470581 -27.5531665 112.28470581 -27.58349609 110.41918945 C-28.0388871 106.68076567 -29.17495329 104.26607196 -31 101 C-31.33 100.01 -31.66 99.02 -32 98 C-30.96101563 97.78085938 -29.92203125 97.56171875 -28.8515625 97.3359375 C-18.49453905 95.03575822 -8.78515449 92.77905187 -2.5625 83.4375 C2.36833597 74.1485314 5.01446044 62.38635496 2.203125 52.078125 C0.48138398 46.77212255 0.48138398 46.77212255 -2.62890625 42.24609375 C-4.81490056 38.66504895 -4.27480183 35.03751082 -4.125 30.9375 C-4.08157208 29.32172601 -4.0423365 27.7058325 -4.0078125 26.08984375 C-3.98348145 25.37691162 -3.95915039 24.66397949 -3.93408203 23.92944336 C-3.91624571 21.77851081 -3.91624571 21.77851081 -5 19 C-11.97385177 18.1953248 -16.25259453 20.28021445 -22.36328125 23.58984375 C-26.33892789 25.71607847 -28.27015214 26.09024526 -32.5625 25.0625 C-37.8954035 24.0044977 -43.02248316 23.80324356 -48.4375 23.8125 C-49.21875244 23.81193604 -50.00000488 23.81137207 -50.80493164 23.81079102 C-54.3769622 23.84445656 -57.55947815 24.09450878 -61 25 C-66.97798979 25.71735878 -70.64726569 23.98107103 -75.765625 21.19140625 C-79.9600128 18.95488828 -83.30949715 18.91149995 -88 19 C-89.05166406 22.15499217 -88.96725422 24.61504258 -88.83349609 27.90283203 C-88.38480568 40.18015625 -88.38480568 40.18015625 -92.7109375 45.1640625 C-97.43026451 51.88552824 -96.62988237 61.22095276 -96 69 C-94.09575885 78.30481473 -90.23444722 86.37148556 -82.25 91.8125 C-77.74920787 94.38191773 -72.97835547 95.67243854 -68 97 C-65.99657266 97.65629516 -63.99468882 98.31760646 -62 99 C-62.78380461 100.81591374 -63.57728447 102.62765407 -64.375 104.4375 C-64.81585938 105.44683594 -65.25671875 106.45617187 -65.7109375 107.49609375 C-67 110 -67 110 -69 111 C-73.99019278 111.4973885 -78.49287187 111.66313638 -83.125 109.625 C-86 107 -86 107 -88.0078125 104.578125 C-92.7136932 98.90483329 -95.64972015 95.92834202 -103.12890625 95.0859375 C-103.74636719 95.05757813 -104.36382812 95.02921875 -105 95 C-104.29875 95.66 -103.5975 96.32 -102.875 97 C-98.31932182 101.56854733 -94.68289023 106.79258501 -91.375 112.3125 C-88.85311045 116.43481945 -86.63514511 118.45495163 -82 120 C-79.26134713 120.07051114 -76.54972412 120.09357765 -73.8125 120.0625 C-72.68811523 120.05573242 -72.68811523 120.05573242 -71.54101562 120.04882812 C-69.69397617 120.03706354 -67.84697787 120.01912865 -66 120 C-65.94619422 122.79192205 -65.90642331 125.5828141 -65.875 128.375 C-65.85824219 129.1690625 -65.84148437 129.963125 -65.82421875 130.78125 C-65.80664527 132.85492015 -65.89664832 134.92883241 -66 137 C-66.66 137.66 -67.32 138.32 -68 139 C-73.81622654 138.75223742 -78.22136651 137.34677916 -83.3125 134.5 C-83.95840088 134.14542725 -84.60430176 133.79085449 -85.26977539 133.42553711 C-105.09664037 122.1979214 -117.60950925 104.34505721 -123.96875 82.703125 C-128.45990231 64.65534627 -126.83403203 45.51963989 -118 29 C-117.53078125 28.08089844 -117.0615625 27.16179688 -116.578125 26.21484375 C-106.35857026 7.35733202 -88.85596378 -6.70286656 -68.28393555 -12.90478516 C-45.18593317 -19.14625156 -19.17376732 -14.20913114 0 0 Z " fill="#FBFBFB" transform="translate(154,33)"/>
</svg>
